<?xml version="1.0" encoding="UTF-8" standalone="no"?>
<svg width="45px" height="44px" viewBox="0 0 45 44" version="1.1" xmlns="http://www.w3.org/2000/svg" xmlns:xlink="http://www.w3.org/1999/xlink" xmlns:sketch="http://www.bohemiancoding.com/sketch/ns">
    <!-- Generator: Sketch 3.3.2 (12043) - http://www.bohemiancoding.com/sketch -->
    <title>Twitter</title>
    <desc>Created with Sketch.</desc>
    <defs></defs>
    <g id="Home" stroke="none" stroke-width="1" fill="none" fill-rule="evenodd" sketch:type="MSPage">
        <g id="Mobile-Crowdfunding" sketch:type="MSArtboardGroup" transform="translate(-61.000000, -1252.000000)">
            <g id="Share-the-campaign" sketch:type="MSLayerGroup" transform="translate(19.000000, 1203.000000)">
                <g id="Twitter-Box" transform="translate(0.000000, 47.000000)" sketch:type="MSShapeGroup">
                    <g id="Twitter" transform="translate(42.000000, 2.000000)">
                        <path d="M0,22 C0,9.8497349 9.92277022,0 22.163129,0 C34.4034877,0 44.3262579,9.8497349 44.3262579,22 C44.3262579,34.1502651 34.4034877,44 22.163129,44 C9.92277022,44 0,34.1502651 0,22 Z" fill="#4099FF"></path>
                        <path d="M21.6145826,17.5178502 L21.6610234,18.2790999 L20.8870094,18.1858856 C18.0695984,17.8285644 15.6082338,16.6167792 13.518396,14.5816017 L12.4966975,13.5717807 L12.2335327,14.3174946 C11.6762426,15.9798153 12.0322891,17.7353501 13.1933101,18.9160639 C13.8125213,19.5685635 13.6731988,19.6617778 12.6050595,19.2733851 C12.2335327,19.1490995 11.9084468,19.0558852 11.8774863,19.1024923 C11.7691243,19.2112423 12.140651,20.6249916 12.4347764,21.184277 C12.8372637,21.9610624 13.6577185,22.722312 14.5555748,23.1728475 L15.3141085,23.5301688 L14.4162522,23.5457045 C13.5493565,23.5457045 13.518396,23.5612402 13.6112777,23.88749 C13.9208833,24.897311 15.1438254,25.9692747 16.5060901,26.4353459 L17.4658674,26.7615958 L16.6299323,27.2587384 C15.3915099,27.9733809 13.9363636,28.3773093 12.4812172,28.4083807 C11.7846046,28.4239164 11.2118342,28.4860592 11.2118342,28.5326664 C11.2118342,28.6880234 13.1004284,29.558023 14.1995283,29.8998086 C17.496828,30.9096295 21.4133389,30.4746297 24.3545922,28.7501663 C26.44443,27.5228454 28.5342678,25.0837395 29.5095255,22.722312 C30.035855,21.4639198 30.5621845,19.1646352 30.5621845,18.0616 C30.5621845,17.3469575 30.6086254,17.2537432 31.4755211,16.3992794 C31.9863703,15.9021367 32.466259,15.358387 32.5591407,15.2030299 C32.7139435,14.9078515 32.6984632,14.9078515 31.9089689,15.1719585 C30.5931451,15.6380297 30.4073817,15.5758869 31.0575535,14.8767801 C31.5374422,14.3796375 32.1102126,13.4785665 32.1102126,13.2144595 C32.1102126,13.1678523 31.8780083,13.2455309 31.6148436,13.3853522 C31.3361985,13.5407093 30.7169873,13.7737449 30.2525789,13.9135663 L29.4166438,14.1776733 L28.6581101,13.664995 C28.2401425,13.3853522 27.6518918,13.0746381 27.3422862,12.9814239 C26.5527919,12.763924 25.3453301,12.7949954 24.6332372,13.0435667 C22.6982022,13.7426735 21.47526,15.5448155 21.6145826,17.5178502 Z" id="Path" fill="#FFFFFF"></path>
                    </g>
                </g>
            </g>
        </g>
    </g>
</svg>